<svg xmlns="http://www.w3.org/2000/svg" viewBox="0 0 100 100" width="100%" height="100%" fill="none">
  <defs>
    <!-- Light Mode Gradient -->
    <linearGradient id="ly-resp-l-light" x1="20" y1="14" x2="50" y2="86" gradientUnits="userSpaceOnUse">
      <stop offset="0%" stop-color="#059669"/>
      <stop offset="100%" stop-color="#0284c7"/>
    </linearGradient>
    <linearGradient id="ly-resp-y-light" x1="45" y1="14" x2="85" y2="86" gradientUnits="userSpaceOnUse">
      <stop offset="0%" stop-color="#0284c7"/>
      <stop offset="50%" stop-color="#4f46e5"/>
      <stop offset="100%" stop-color="#4338ca"/>
    </linearGradient>

    <!-- Dark Mode Gradient -->
    <linearGradient id="ly-resp-l-dark" x1="20" y1="14" x2="50" y2="86" gradientUnits="userSpaceOnUse">
      <stop offset="0%" stop-color="#34d399"/>
      <stop offset="100%" stop-color="#06b6d4"/>
    </linearGradient>
    <linearGradient id="ly-resp-y-dark" x1="45" y1="14" x2="85" y2="86" gradientUnits="userSpaceOnUse">
      <stop offset="0%" stop-color="#38bdf8"/>
      <stop offset="50%" stop-color="#818cf8"/>
      <stop offset="100%" stop-color="#6366f1"/>
    </linearGradient>
  </defs>

  <style>
    .ly-l { fill: url(#ly-resp-l-light); }
    .ly-y { fill: url(#ly-resp-y-light); }
    .ly-f { fill: #0f172a; opacity: 0.12; }
    
    @media (prefers-color-scheme: dark) {
      .ly-l { fill: url(#ly-resp-l-dark); }
      .ly-y { fill: url(#ly-resp-y-dark); }
      .ly-f { fill: #ffffff; opacity: 0.18; }
    }
  </style>

  <path class="ly-l" d="M 22 18 C 22 14.7 24.7 12 28 12 H 34 C 37.3 12 40 14.7 40 18 V 64 C 40 67.3 42.7 70 46 70 H 74 C 77.3 70 80 72.7 80 76 V 82 C 80 85.3 77.3 88 74 88 H 32 C 26.5 88 22 83.5 22 78 V 18 Z"/>
  <path class="ly-y" d="M 44 20 C 42.2 18 42.6 15 44.9 13.5 C 47 12 50 12.5 51.8 14.5 L 67 33 L 82.2 14.5 C 84 12.5 87 12 89.1 13.5 C 91.4 15 91.8 18 90 20 L 76 39 V 82 C 76 85.3 73.3 88 70 88 H 64 C 60.7 88 58 85.3 58 82 V 39 L 44 20 Z"/>
  <path class="ly-f" d="M 58 70 H 76 V 82 C 76 85.3 73.3 88 70 88 H 64 C 60.7 88 58 85.3 58 82 V 70 Z"/>
</svg>